<svg width="32" height="32" viewBox="0 0 32 32" xmlns="http://www.w3.org/2000/svg">
  <defs>
    <linearGradient id="faviconGradient" x1="0%" y1="0%" x2="100%" y2="100%">
      <stop offset="0%" style="stop-color:#3B82F6;stop-opacity:1" />
      <stop offset="100%" style="stop-color:#8B5CF6;stop-opacity:1" />
    </linearGradient>
  </defs>
  
  <!-- Background circle -->
  <circle cx="16" cy="16" r="16" fill="url(#faviconGradient)"/>
  
  <!-- Stylized "P" -->
  <path d="M8 6 C8 4, 10 2, 12 2 L20 2 C22 2, 24 4, 24 6 L24 14 C24 16, 22 18, 20 18 L12 18 L12 26 L8 26 Z M12 6 L20 6 C21 6, 22 7, 22 8 L22 14 C22 15, 21 16, 20 16 L12 16 Z" 
        fill="white"/>
  
  <!-- AI indicator dot -->
  <circle cx="26" cy="8" r="2" fill="white" opacity="0.8"/>
</svg>